<svg class="svg-icon" style="width: 1em; height: 1em;vertical-align: middle;fill: currentColor;overflow: hidden;" viewBox="0 0 1024 1024" version="1.1" xmlns="http://www.w3.org/2000/svg"><path d="M177.50016 307.2l614.4 0c11.30496 0 20.48-9.15456 20.48-20.48s-9.17504-20.48-20.48-20.48l-614.4 0c-11.30496 0-20.48 9.15456-20.48 20.48S166.17472 307.2 177.50016 307.2z"  /><path d="M177.50016 757.76l614.4 0c11.30496 0 20.48-9.15456 20.48-20.48s-9.17504-20.48-20.48-20.48l-614.4 0c-11.30496 0-20.48 9.15456-20.48 20.48S166.17472 757.76 177.50016 757.76z"  /><path d="M177.50016 532.48l614.4 0c11.30496 0 20.48-9.15456 20.48-20.48s-9.17504-20.48-20.48-20.48l-614.4 0c-11.30496 0-20.48 9.15456-20.48 20.48S166.17472 532.48 177.50016 532.48z"  /></svg>